<?xml version="1.0" encoding="UTF-8"?><svg id="a" xmlns="http://www.w3.org/2000/svg" viewBox="0 0 40 40"><path d="m20,40s15.25-11.82,15.25-22.65C35.25,8.04,28.42.49,20,.49S4.75,8.04,4.75,17.35c0,10.35,15.25,22.65,15.25,22.65Z" fill="#4377bc"/><g><path d="m22.09,6.72c-.28-.88-1.11-1.52-2.09-1.52s-1.81.64-2.09,1.52c-4.78.97-8.37,5.19-8.37,10.25,0,5.78,4.68,10.46,10.46,10.46,5.78,0,10.46-4.68,10.46-10.46,0-5.06-3.6-9.28-8.37-10.25Zm-2.09,18.87c-4.76,0-8.62-3.86-8.62-8.62,0-4.12,2.89-7.56,6.76-8.42.39.62,1.08,1.03,1.86,1.03s1.47-.41,1.86-1.03c3.87.85,6.76,4.29,6.76,8.42,0,4.76-3.86,8.62-8.62,8.62Z" fill="#fff"/><circle cx="20" cy="16.97" r="4.06" transform="translate(-3.36 5.05) rotate(-13.28)" fill="#fff"/></g></svg>