<svg width="148.23" height="20.48" xmlns="http://www.w3.org/2000/svg">

 <g>
  <g id="letters">
   <path id="H" fill="#14274d" d="m36.42,18.51l-3.5,0l0,-7.15l-6.56,0l0,7.15l-3.51,0l0,-16.57l3.51,0l0,6.5l6.56,0l0,-6.5l3.5,0l0,16.57z"/>
   <path id="2" fill="#14274d" d="m50.56,18.51l-11.12,0l0,-2.44l3.9,-4.21c0.49,-0.53 0.94,-1.02 1.34,-1.46s0.74,-0.88 1.03,-1.3s0.51,-0.85 0.67,-1.29s0.24,-0.91 0.24,-1.42c0,-0.56 -0.17,-0.99 -0.5,-1.3s-0.79,-0.46 -1.35,-0.46c-0.6,0 -1.17,0.15 -1.72,0.44s-1.13,0.71 -1.73,1.26l-1.9,-2.26c0.34,-0.31 0.7,-0.61 1.07,-0.89s0.78,-0.53 1.22,-0.75s0.94,-0.39 1.47,-0.53s1.14,-0.2 1.8,-0.2c0.79,0 1.51,0.11 2.14,0.33s1.17,0.53 1.62,0.94s0.79,0.89 1.03,1.47s0.36,1.22 0.36,1.94c0,0.65 -0.11,1.27 -0.34,1.86s-0.54,1.18 -0.93,1.75s-0.85,1.14 -1.37,1.7s-1.07,1.14 -1.66,1.72l-2,2.01l0,0.16l6.76,0l0,2.95l-0.03,-0.02z"/>
   <path id="n" fill="#14274d" d="m64.81,18.51l-3.46,0l0,-7.4c0,-0.91 -0.16,-1.6 -0.49,-2.06s-0.84,-0.69 -1.55,-0.69c-0.97,0 -1.67,0.32 -2.1,0.97s-0.65,1.72 -0.65,3.21l0,5.96l-3.46,0l0,-12.66l2.64,0l0.46,1.62l0.19,0c0.39,-0.61 0.92,-1.08 1.59,-1.39s1.45,-0.47 2.31,-0.47c1.47,0 2.59,0.4 3.36,1.2s1.14,1.95 1.14,3.45l0,8.26l0.02,0z"/>
   <path id="e" fill="#14274d" d="m74.11,18.74c-2.04,0 -3.63,-0.56 -4.78,-1.69s-1.72,-2.72 -1.72,-4.78s0.53,-3.77 1.59,-4.93s2.53,-1.74 4.4,-1.74s3.19,0.51 4.18,1.53s1.5,2.43 1.5,4.23l0,1.68l-8.17,0c0.04,0.98 0.33,1.75 0.87,2.3s1.31,0.83 2.29,0.83c0.76,0 1.48,-0.08 2.17,-0.24s1.39,-0.41 2.13,-0.76l0,2.68c-0.6,0.3 -1.25,0.53 -1.94,0.67s-1.53,0.22 -2.52,0.22zm-0.49,-10.68c-0.73,0 -1.31,0.23 -1.72,0.7s-0.65,1.12 -0.71,1.98l4.85,0c-0.02,-0.85 -0.24,-1.51 -0.67,-1.98s-1.01,-0.7 -1.75,-0.7z"/>
   <path id="a" fill="#14274d" d="m90.14,18.51l-0.67,-1.72l-0.09,0c-0.58,0.73 -1.18,1.24 -1.8,1.52s-1.42,0.43 -2.41,0.43c-1.22,0 -2.17,-0.35 -2.87,-1.04s-1.05,-1.69 -1.05,-2.97s0.47,-2.34 1.41,-2.98s2.36,-0.99 4.26,-1.06l2.2,-0.07l0,-0.56c0,-1.28 -0.66,-1.93 -1.97,-1.93c-1.01,0 -2.2,0.31 -3.57,0.92l-1.14,-2.34c1.46,-0.76 3.08,-1.14 4.85,-1.14s3,0.37 3.91,1.11s1.36,1.87 1.36,3.38l0,8.45l-2.41,0l-0.01,0zm-1.02,-5.87l-1.34,0.05c-1.01,0.03 -1.75,0.21 -2.24,0.54s-0.74,0.84 -0.74,1.52c0,0.97 0.56,1.46 1.68,1.46c0.8,0 1.44,-0.23 1.92,-0.69s0.72,-1.07 0.72,-1.84l0,-1.04z"/>
   <path id="r" fill="#14274d" d="m103.18,5.6c0.47,0 0.86,0.03 1.17,0.1l-0.26,3.24c-0.28,-0.08 -0.62,-0.11 -1.02,-0.11c-1.1,0 -1.96,0.28 -2.58,0.85s-0.92,1.36 -0.92,2.38l0,6.45l-3.46,0l0,-12.67l2.62,0l0.51,2.13l0.17,0c0.39,-0.71 0.92,-1.28 1.59,-1.72s1.4,-0.65 2.18,-0.65z"/>
   <path id="dot" fill="#d8ddde" d="m106.17,16.89c0,-0.36 0.05,-0.66 0.15,-0.9s0.24,-0.44 0.43,-0.6s0.39,-0.26 0.63,-0.33s0.5,-0.1 0.78,-0.1c0.26,0 0.52,0.03 0.75,0.1s0.45,0.18 0.63,0.33s0.32,0.35 0.43,0.6s0.16,0.55 0.16,0.9s-0.05,0.63 -0.16,0.87s-0.25,0.44 -0.43,0.6s-0.39,0.27 -0.63,0.35s-0.49,0.11 -0.75,0.11c-0.28,0 -0.54,-0.04 -0.78,-0.11s-0.45,-0.19 -0.63,-0.35s-0.32,-0.36 -0.43,-0.6s-0.15,-0.53 -0.15,-0.87z"/>
   <path id="m" fill="#14274d" d="m124.62,18.51l-3.46,0l0,-7.4c0,-0.91 -0.15,-1.6 -0.46,-2.06s-0.79,-0.69 -1.45,-0.69c-0.88,0 -1.53,0.32 -1.93,0.97s-0.6,1.72 -0.6,3.21l0,5.96l-3.46,0l0,-12.66l2.64,0l0.46,1.62l0.19,0c0.34,-0.58 0.83,-1.04 1.47,-1.37s1.38,-0.49 2.21,-0.49c1.9,0 3.18,0.62 3.85,1.86l0.31,0c0.34,-0.59 0.84,-1.05 1.5,-1.37s1.41,-0.49 2.24,-0.49c1.44,0 2.52,0.37 3.26,1.11s1.11,1.92 1.11,3.54l0,8.26l-3.47,0l0,-7.4c0,-0.91 -0.15,-1.6 -0.46,-2.06s-0.79,-0.69 -1.45,-0.69c-0.85,0 -1.48,0.3 -1.9,0.91s-0.63,1.56 -0.63,2.88l0,6.36l0.03,0z"/>
   <path id="e" fill="#14274d" d="m141.81,18.74c-2.04,0 -3.63,-0.56 -4.78,-1.69s-1.72,-2.72 -1.72,-4.78s0.53,-3.77 1.59,-4.93s2.53,-1.74 4.4,-1.74s3.19,0.51 4.18,1.53s1.5,2.43 1.5,4.23l0,1.68l-8.17,0c0.04,0.98 0.33,1.75 0.87,2.3s1.31,0.83 2.29,0.83c0.76,0 1.48,-0.08 2.17,-0.24s1.39,-0.41 2.13,-0.76l0,2.68c-0.6,0.3 -1.25,0.53 -1.94,0.67s-1.53,0.22 -2.52,0.22zm-0.49,-10.68c-0.73,0 -1.31,0.23 -1.72,0.7s-0.65,1.12 -0.71,1.98l4.85,0c-0.02,-0.85 -0.24,-1.51 -0.67,-1.98s-1.01,-0.7 -1.75,-0.7z"/>
  </g>
  <g id="icon<svg id="logo" version="1.1" baseProfile="tiny" id="Layer_1" xmlns="http://www.w3.org/2000/svg" xmlns:xlink="http://www.w3.org/1999/xlink"
	 x="0px" y="0px" viewBox="0 0 148.2 20.5" overflow="visible" xml:space="preserve">
<g id="text">
	<path id="H" fill="#14274D" d="M36.4,18.5h-3.5v-7.2h-6.6v7.2h-3.5V1.9h3.5v6.5h6.6V1.9h3.5V18.5z"/>
	<path id="2" fill="#14274D" d="M50.6,18.5H39.4v-2.4l3.9-4.2c0.5-0.5,0.9-1,1.3-1.5s0.7-0.9,1-1.3c0.3-0.4,0.5-0.9,0.7-1.3
		c0.2-0.4,0.2-0.9,0.2-1.4c0-0.6-0.2-1-0.5-1.3c-0.3-0.3-0.8-0.5-1.4-0.5c-0.6,0-1.2,0.1-1.7,0.4c-0.6,0.3-1.1,0.7-1.7,1.3l-1.9-2.3
		c0.3-0.3,0.7-0.6,1.1-0.9s0.8-0.5,1.2-0.8c0.4-0.2,0.9-0.4,1.5-0.5c0.5-0.1,1.1-0.2,1.8-0.2c0.8,0,1.5,0.1,2.1,0.3
		c0.6,0.2,1.2,0.5,1.6,0.9s0.8,0.9,1,1.5C50,5,50.1,5.7,50.1,6.4c0,0.6-0.1,1.3-0.3,1.9s-0.5,1.2-0.9,1.7s-0.8,1.1-1.4,1.7
		c-0.5,0.6-1.1,1.1-1.7,1.7l-2,2v0.2h6.8V18.5z"/>
	<path id="n" fill="#14274D" d="M64.8,18.5h-3.5v-7.4c0-0.9-0.2-1.6-0.5-2.1c-0.3-0.5-0.8-0.7-1.6-0.7c-1,0-1.7,0.3-2.1,1
		c-0.4,0.6-0.6,1.7-0.6,3.2v6h-3.5V5.8h2.6l0.5,1.6h0.2c0.4-0.6,0.9-1.1,1.6-1.4c0.7-0.3,1.4-0.5,2.3-0.5c1.5,0,2.6,0.4,3.4,1.2
		c0.8,0.8,1.1,1.9,1.1,3.5V18.5z"/>
	<path id="e" fill="#14274D" d="M74.1,18.7c-2,0-3.6-0.6-4.8-1.7s-1.7-2.7-1.7-4.8c0-2.1,0.5-3.8,1.6-4.9s2.5-1.7,4.4-1.7
		c1.8,0,3.2,0.5,4.2,1.5s1.5,2.4,1.5,4.2V13h-8.2c0,1,0.3,1.7,0.9,2.3c0.5,0.6,1.3,0.8,2.3,0.8c0.8,0,1.5-0.1,2.2-0.2
		c0.7-0.2,1.4-0.4,2.1-0.8v2.7c-0.6,0.3-1.3,0.5-1.9,0.7C75.9,18.7,75.1,18.7,74.1,18.7z M73.6,8.1c-0.7,0-1.3,0.2-1.7,0.7
		c-0.4,0.5-0.7,1.1-0.7,2H76c0-0.9-0.2-1.5-0.7-2C74.9,8.3,74.4,8.1,73.6,8.1z"/>
	<path id="a" fill="#14274D" d="M90.1,18.5l-0.7-1.7h-0.1c-0.6,0.7-1.2,1.2-1.8,1.5c-0.6,0.3-1.4,0.4-2.4,0.4c-1.2,0-2.2-0.3-2.9-1
		c-0.7-0.7-1-1.7-1-3c0-1.3,0.5-2.3,1.4-3c0.9-0.6,2.4-1,4.3-1.1l2.2-0.1v-0.6c0-1.3-0.7-1.9-2-1.9c-1,0-2.2,0.3-3.6,0.9l-1.1-2.3
		c1.5-0.8,3.1-1.1,4.9-1.1c1.7,0,3,0.4,3.9,1.1s1.4,1.9,1.4,3.4v8.4H90.1z M89.1,12.6l-1.3,0c-1,0-1.8,0.2-2.2,0.5
		c-0.5,0.3-0.7,0.8-0.7,1.5c0,1,0.6,1.5,1.7,1.5c0.8,0,1.4-0.2,1.9-0.7c0.5-0.5,0.7-1.1,0.7-1.8V12.6z"/>
	<path id="r" fill="#14274D" d="M103.2,5.6c0.5,0,0.9,0,1.2,0.1l-0.3,3.2c-0.3-0.1-0.6-0.1-1-0.1c-1.1,0-2,0.3-2.6,0.9s-0.9,1.4-0.9,2.4
		v6.5h-3.5V5.8h2.6L99.2,8h0.2c0.4-0.7,0.9-1.3,1.6-1.7C101.7,5.8,102.4,5.6,103.2,5.6z"/>
	<path id="dot" fill="#D8DDDE" d="M106.2,16.9c0-0.4,0.1-0.7,0.2-0.9c0.1-0.2,0.2-0.4,0.4-0.6c0.2-0.2,0.4-0.3,0.6-0.3
		c0.2-0.1,0.5-0.1,0.8-0.1c0.3,0,0.5,0,0.8,0.1c0.2,0.1,0.4,0.2,0.6,0.3c0.2,0.2,0.3,0.3,0.4,0.6c0.1,0.2,0.2,0.5,0.2,0.9
		c0,0.3-0.1,0.6-0.2,0.9c-0.1,0.2-0.2,0.4-0.4,0.6c-0.2,0.2-0.4,0.3-0.6,0.3c-0.2,0.1-0.5,0.1-0.8,0.1c-0.3,0-0.5,0-0.8-0.1
		s-0.5-0.2-0.6-0.3c-0.2-0.2-0.3-0.4-0.4-0.6S106.2,17.2,106.2,16.9z"/>
	<path id="m" fill="#14274D" d="M124.6,18.5h-3.5v-7.4c0-0.9-0.2-1.6-0.5-2.1c-0.3-0.5-0.8-0.7-1.4-0.7c-0.9,0-1.5,0.3-1.9,1
		c-0.4,0.6-0.6,1.7-0.6,3.2v6h-3.5V5.8h2.6l0.5,1.6h0.2c0.3-0.6,0.8-1,1.5-1.4s1.4-0.5,2.2-0.5c1.9,0,3.2,0.6,3.9,1.9h0.3
		c0.3-0.6,0.8-1,1.5-1.4c0.7-0.3,1.4-0.5,2.2-0.5c1.4,0,2.5,0.4,3.3,1.1c0.7,0.7,1.1,1.9,1.1,3.5v8.3h-3.5v-7.4
		c0-0.9-0.2-1.6-0.5-2.1c-0.3-0.5-0.8-0.7-1.4-0.7c-0.8,0-1.5,0.3-1.9,0.9c-0.4,0.6-0.6,1.6-0.6,2.9V18.5z"/>
	<path id="e" fill="#14274D" d="M141.8,18.7c-2,0-3.6-0.6-4.8-1.7c-1.1-1.1-1.7-2.7-1.7-4.8c0-2.1,0.5-3.8,1.6-4.9s2.5-1.7,4.4-1.7
		c1.8,0,3.2,0.5,4.2,1.5s1.5,2.4,1.5,4.2V13h-8.2c0,1,0.3,1.7,0.9,2.3c0.5,0.6,1.3,0.8,2.3,0.8c0.8,0,1.5-0.1,2.2-0.2
		c0.7-0.2,1.4-0.4,2.1-0.8v2.7c-0.6,0.3-1.3,0.5-1.9,0.7C143.6,18.7,142.8,18.7,141.8,18.7z M141.3,8.1c-0.7,0-1.3,0.2-1.7,0.7
		c-0.4,0.5-0.7,1.1-0.7,2h4.9c0-0.9-0.2-1.5-0.7-2C142.6,8.3,142.1,8.1,141.3,8.1z"/>
</g>
<g id="icon">
	<path id="hydrogen-icon" fill="#4377BC" d="M11.8,2.1c-0.2-0.8-0.9-1.3-1.8-1.3c-0.8,0-1.5,0.5-1.8,1.3c-4.1,0.8-7.1,4.4-7.1,8.7c0,4.9,4,8.9,8.9,8.9
		c4.9,0,8.9-4,8.9-8.9C19,6.5,15.9,2.9,11.8,2.1z M10.1,18.2c-4.1,0-7.4-3.3-7.4-7.4c0-3.5,2.5-6.5,5.8-7.2c0.3,0.5,0.9,0.9,1.6,0.9
		c0.7,0,1.3-0.4,1.6-0.9c3.3,0.7,5.8,3.7,5.8,7.2C17.4,14.9,14.1,18.2,10.1,18.2z"/>
	<ellipse transform="matrix(0.9732 -0.2298 0.2298 0.9732 -2.2165 2.5988)" fill="#4377BC" cx="10.1" cy="10.8" rx="3.5" ry="3.5"/>
</g>
</svg>
">
   <path id="hydrogen-logo" fill="#4377bc" d="m11.84,2.07c-0.24,-0.75 -0.95,-1.3 -1.78,-1.3s-1.54,0.55 -1.78,1.3c-4.09,0.83 -7.16,4.43 -7.16,8.75c0,4.93 4,8.93 8.93,8.93s8.93,-4 8.93,-8.93c0,-4.32 -3.07,-7.92 -7.14,-8.75zm-1.78,16.1c-4.06,0 -7.36,-3.29 -7.36,-7.36c0,-3.52 2.47,-6.46 5.77,-7.18c0.33,0.53 0.92,0.88 1.59,0.88s1.26,-0.35 1.59,-0.88c3.3,0.73 5.77,3.66 5.77,7.18c0,4.06 -3.29,7.36 -7.36,7.36z"/>
   <circle id="svg_13" transform="rotate(-13.28 -2.22 2.6)" fill="#4377bc" r="3.47" cy="13.42" cx="7.83"/>
  </g>
 </g>
</svg>