<?xml version="1.0" encoding="UTF-8"?><svg id="a" xmlns="http://www.w3.org/2000/svg" viewBox="0 0 148.23 20.48"><g><path d="m36.42,18.51h-3.5v-7.15h-6.56v7.15h-3.51V1.94h3.51v6.5h6.56V1.94h3.5v16.57Z" fill="#14274d"/><path d="m50.56,18.51h-11.12v-2.44l3.9-4.21c.49-.53.94-1.02,1.34-1.46s.74-.88,1.03-1.3.51-.85.67-1.29.24-.91.24-1.42c0-.56-.17-.99-.5-1.3s-.79-.46-1.35-.46c-.6,0-1.17.15-1.72.44s-1.13.71-1.73,1.26l-1.9-2.26c.34-.31.7-.61,1.07-.89s.78-.53,1.22-.75.94-.39,1.47-.53,1.14-.2,1.8-.2c.79,0,1.51.11,2.14.33s1.17.53,1.62.94.79.89,1.03,1.47.36,1.22.36,1.94c0,.65-.11,1.27-.34,1.86s-.54,1.18-.93,1.75-.85,1.14-1.37,1.7-1.07,1.14-1.66,1.72l-2,2.01v.16h6.76v2.95Z" fill="#14274d"/><path d="m64.81,18.51h-3.46v-7.4c0-.91-.16-1.6-.49-2.06s-.84-.69-1.55-.69c-.97,0-1.67.32-2.1.97s-.65,1.72-.65,3.21v5.96h-3.46V5.84h2.64l.46,1.62h.19c.39-.61.92-1.08,1.59-1.39s1.45-.47,2.31-.47c1.47,0,2.59.4,3.36,1.2s1.14,1.95,1.14,3.45v8.26Z" fill="#14274d"/><path d="m74.11,18.74c-2.04,0-3.63-.56-4.78-1.69s-1.72-2.72-1.72-4.78.53-3.77,1.59-4.93,2.53-1.74,4.4-1.74,3.19.51,4.18,1.53,1.5,2.43,1.5,4.23v1.68h-8.17c.04.98.33,1.75.87,2.3s1.31.83,2.29.83c.76,0,1.48-.08,2.17-.24s1.39-.41,2.13-.76v2.68c-.6.3-1.25.53-1.94.67s-1.53.22-2.52.22Zm-.49-10.68c-.73,0-1.31.23-1.72.7s-.65,1.12-.71,1.98h4.85c-.02-.85-.24-1.51-.67-1.98s-1.01-.7-1.75-.7Z" fill="#14274d"/><path d="m90.14,18.51l-.67-1.72h-.09c-.58.73-1.18,1.24-1.8,1.52s-1.42.43-2.41.43c-1.22,0-2.17-.35-2.87-1.04s-1.05-1.69-1.05-2.97.47-2.34,1.41-2.98,2.36-.99,4.26-1.06l2.2-.07v-.56c0-1.28-.66-1.93-1.97-1.93-1.01,0-2.2.31-3.57.92l-1.14-2.34c1.46-.76,3.08-1.14,4.85-1.14s3,.37,3.91,1.11,1.36,1.87,1.36,3.38v8.45h-2.41Zm-1.02-5.87l-1.34.05c-1.01.03-1.75.21-2.24.54s-.74.84-.74,1.52c0,.97.56,1.46,1.68,1.46.8,0,1.44-.23,1.92-.69s.72-1.07.72-1.84v-1.04Z" fill="#14274d"/><path d="m103.18,5.6c.47,0,.86.03,1.17.1l-.26,3.24c-.28-.08-.62-.11-1.02-.11-1.1,0-1.96.28-2.58.85s-.92,1.36-.92,2.38v6.45h-3.46V5.84h2.62l.51,2.13h.17c.39-.71.92-1.28,1.59-1.72s1.4-.65,2.18-.65Z" fill="#14274d"/><path d="m106.17,16.89c0-.36.05-.66.15-.9s.24-.44.43-.6.39-.26.63-.33.5-.1.78-.1c.26,0,.52.03.75.1s.45.18.63.33.32.35.43.6.16.55.16.9-.05.63-.16.87-.25.44-.43.6-.39.27-.63.35-.49.11-.75.11c-.28,0-.54-.04-.78-.11s-.45-.19-.63-.35-.32-.36-.43-.6-.15-.53-.15-.87Z" fill="#d8ddde"/><path d="m124.62,18.51h-3.46v-7.4c0-.91-.15-1.6-.46-2.06s-.79-.69-1.45-.69c-.88,0-1.53.32-1.93.97s-.6,1.72-.6,3.21v5.96h-3.46V5.84h2.64l.46,1.62h.19c.34-.58.83-1.04,1.47-1.37s1.38-.49,2.21-.49c1.9,0,3.18.62,3.85,1.86h.31c.34-.59.84-1.05,1.5-1.37s1.41-.49,2.24-.49c1.44,0,2.52.37,3.26,1.11s1.11,1.92,1.11,3.54v8.26h-3.47v-7.4c0-.91-.15-1.6-.46-2.06s-.79-.69-1.45-.69c-.85,0-1.48.3-1.9.91s-.63,1.56-.63,2.88v6.36Z" fill="#14274d"/><path d="m141.81,18.74c-2.04,0-3.63-.56-4.78-1.69s-1.72-2.72-1.72-4.78.53-3.77,1.59-4.93,2.53-1.74,4.4-1.74,3.19.51,4.18,1.53,1.5,2.43,1.5,4.23v1.68h-8.17c.04.98.33,1.75.87,2.3s1.31.83,2.29.83c.76,0,1.48-.08,2.17-.24s1.39-.41,2.13-.76v2.68c-.6.3-1.25.53-1.94.67s-1.53.22-2.52.22Zm-.49-10.68c-.73,0-1.31.23-1.72.7s-.65,1.12-.71,1.98h4.85c-.02-.85-.24-1.51-.67-1.98s-1.01-.7-1.75-.7Z" fill="#14274d"/></g><g><path d="m11.84,2.07c-.24-.75-.95-1.3-1.78-1.3s-1.54.55-1.78,1.3C4.19,2.9,1.12,6.5,1.12,10.82c0,4.93,4,8.93,8.93,8.93s8.93-4,8.93-8.93c0-4.32-3.07-7.92-7.14-8.75Zm-1.78,16.1c-4.06,0-7.36-3.29-7.36-7.36,0-3.52,2.47-6.46,5.77-7.18.33.53.92.88,1.59.88s1.26-.35,1.59-.88c3.3.73,5.77,3.66,5.77,7.18,0,4.06-3.29,7.36-7.36,7.36Z" fill="#4377bc"/><circle cx="10.05" cy="10.82" r="3.47" transform="translate(-2.22 2.6) rotate(-13.28)" fill="#4377bc"/></g></svg>